<svg id="Layer_1" data-name="Layer 1" xmlns="http://www.w3.org/2000/svg" viewBox="0 0 1920 1920"><defs><style>.cls-1{fill:#ffd800;}.cls-2{fill:#fff;}.cls-3{fill:#ef9b0f;}</style></defs><circle class="cls-1" cx="960" cy="960" r="812.19"/><circle class="cls-2" cx="430.81" cy="960.31" r="138.44"/><circle class="cls-2" cx="695.14" cy="502.53" r="138.44"/><circle class="cls-2" cx="1223.8" cy="502.53" r="138.44"/><circle class="cls-2" cx="1488.12" cy="960.31" r="138.44"/><circle class="cls-2" cx="1223.8" cy="1418.09" r="138.44"/><circle class="cls-2" cx="695.14" cy="1418.09" r="138.44"/><rect class="cls-2" x="11.47" y="846.12" width="1097" height="80" rx="40" transform="matrix(0.87, -0.5, 0.5, 0.87, -368.04, 398.7)"/><rect class="cls-2" x="1401.24" y="307.87" width="182" height="80" rx="40" transform="translate(25.99 792.73) rotate(-30)"/><rect class="cls-2" x="811.53" y="993.88" width="1097" height="80" rx="40" transform="translate(3054.8 1249.23) rotate(150)"/><rect class="cls-2" x="336.76" y="1532.13" width="182" height="80" rx="40" transform="translate(1584.27 2719.76) rotate(150)"/><path class="cls-3" d="M500.17,645.65,348.82,372.92c-14.2-25.57-50.75-26.19-65.81-1.11L122.51,639.24c-15.06,25.08,2.69,57,31.93,57.55l311.86,5.28C495.55,702.57,514.36,671.22,500.17,645.65Z"/><path class="cls-3" d="M1454,137C999.41-135.8,409.79,11.52,137,466.05S11.52,1510.21,466.05,1783,1510.21,1908.48,1783,1454,1908.48,409.79,1454,137ZM960,1772.19c-448.56,0-812.19-363.63-812.19-812.19S511.44,147.81,960,147.82,1772.19,511.44,1772.19,960,1408.56,1772.19,960,1772.19Z"/></svg>