<svg id="Layer_1" data-name="Layer 1" xmlns="http://www.w3.org/2000/svg" viewBox="0 0 8513 1920"><defs><style>.cls-1{fill:#ffd800;}.cls-2{fill:#fff;}.cls-3{fill:#ef9b0f;}</style></defs><circle class="cls-1" cx="960" cy="960" r="812.19"/><circle class="cls-2" cx="430.81" cy="960.31" r="138.44"/><circle class="cls-2" cx="695.14" cy="502.53" r="138.44"/><circle class="cls-2" cx="1223.8" cy="502.53" r="138.44"/><circle class="cls-2" cx="1488.12" cy="960.31" r="138.44"/><circle class="cls-2" cx="1223.8" cy="1418.09" r="138.44"/><circle class="cls-2" cx="695.14" cy="1418.09" r="138.44"/><rect class="cls-2" x="11.47" y="846.12" width="1097" height="80" rx="40" transform="matrix(0.87, -0.5, 0.5, 0.87, -368.04, 398.7)"/><rect class="cls-2" x="1401.24" y="307.87" width="182" height="80" rx="40" transform="translate(25.99 792.73) rotate(-30)"/><rect class="cls-2" x="811.53" y="993.88" width="1097" height="80" rx="40" transform="translate(3054.8 1249.23) rotate(150)"/><rect class="cls-2" x="336.76" y="1532.13" width="182" height="80" rx="40" transform="translate(1584.27 2719.76) rotate(150)"/><path class="cls-3" d="M500.17,645.65,348.82,372.92c-14.2-25.57-50.75-26.19-65.81-1.11L122.51,639.24c-15.06,25.08,2.69,57,31.93,57.55l311.86,5.28C495.55,702.57,514.36,671.22,500.17,645.65Z"/><path class="cls-3" d="M1454,137C999.41-135.8,409.79,11.52,137,466.05S11.52,1510.21,466.05,1783,1510.21,1908.48,1783,1454,1908.48,409.79,1454,137ZM960,1772.19c-448.56,0-812.19-363.63-812.19-812.19S511.44,147.81,960,147.82,1772.19,511.44,1772.19,960,1408.56,1772.19,960,1772.19Z"/><path class="cls-3" d="M3439.74,375q29.09,29.94,29.08,79.56V1467.38q0,47.92-27.38,75.29t-71.84,27.38q-44.52,0-70.16-27.38t-25.67-75.29V762.48L2982.92,1313.4q-20.52,37.66-44.5,55.61T2882,1387q-32.52,0-56.46-17.11T2781,1313.4L2488.46,771v696.35q0,46.21-26.54,74.44t-71,28.23q-44.5,0-70.16-27.38t-25.64-75.29V454.51q0-49.59,28.23-79.56T2399.49,345q66.71,0,104.36,73.57l379.83,723.73,378.13-723.73Q3299.45,345,3362.74,345,3410.67,345,3439.74,375Z"/><path class="cls-3" d="M3758.81,1532.42q-28.24-27.37-28.23-77V457.92q0-49.6,28.23-77t77.85-27.38h617.65q49.6,0,77,22.25t27.38,63.3q0,42.78-27.38,65.87t-77,23.1H3946.17V860h473.92q49.59,0,77,22.26t27.38,65q0,41.09-27.38,63.33t-77,22.23H3946.17v352.44h508.14q49.6,0,77,23.11t27.38,65.88q0,41-27.38,63.3t-77,22.24H3836.66Q3787,1559.78,3758.81,1532.42Z"/><path class="cls-3" d="M5886.36,375q29.07,29.94,29.07,79.56V1467.38q0,47.92-27.38,75.29t-71.83,27.38q-44.52,0-70.17-27.38t-25.66-75.29V762.48L5429.53,1313.4Q5409,1351.07,5385,1369t-56.46,18q-32.52,0-56.46-17.11t-44.48-56.46L4935.07,771v696.35q0,46.21-26.53,74.44t-71,28.23q-44.52,0-70.16-27.38t-25.65-75.29V454.51q0-49.59,28.23-79.56T4846.11,345q66.71,0,104.36,73.57l379.82,723.73,378.13-723.73Q5746.06,345,5809.35,345,5857.28,345,5886.36,375Z"/><path class="cls-3" d="M6205.43,1532.42q-28.24-27.37-28.23-77V457.92q0-49.6,28.23-77t77.85-27.38h617.65q49.59,0,77,22.25t27.38,63.3q0,42.78-27.38,65.87t-77,23.1H6392.79V860H6866.7q49.61,0,77,22.26t27.39,65q0,41.09-27.39,63.33t-77,22.23H6392.79v352.44h508.14q49.59,0,77,23.11t27.38,65.88q0,41-27.38,63.3t-77,22.24H6283.28Q6233.65,1559.78,6205.43,1532.42Z"/><path class="cls-3" d="M8137.93,1467.38q0,41.07-31.66,71.88t-72.7,30.79q-42.78,0-75.27-37.65L7611,1101.24l-349,431.16q-30.82,36-73.58,35.93-41.07,0-72.72-29.94t-31.64-71q0-34.19,25.67-65l373-455.11L7125.06,511q-25.67-27.37-25.66-65,0-41,30.79-71T7202,345q42.78,0,75.29,37.65L7611,795,7944.6,382.65Q7975.38,345,8018.17,345q41,0,72.71,29.95t31.66,71q0,37.64-25.67,65L7739.28,947.25l371.29,455.11Q8137.92,1434.88,8137.93,1467.38Z"/></svg>