<svg id="Layer_1" data-name="Layer 1" xmlns="http://www.w3.org/2000/svg" viewBox="0 0 9138 1920"><defs><style>.cls-1{fill:#ef9b0f;}</style></defs><path class="cls-1" d="M1793.61,46.93q45.57,46.94,45.57,124.7V1759.09q0,75.11-42.92,118T1683.68,1920q-69.78,0-110-42.92t-40.23-118V654.31l-455.85,863.44q-32.16,59-69.74,87.16t-88.48,28.15q-51,0-88.49-26.82t-69.7-88.49l-458.55-850V1759.09q0,72.44-41.59,116.67T149.83,1920q-69.78,0-110-42.92t-40.19-118V171.63q0-77.73,44.24-124.7T163.24,0Q267.79,0,326.8,115.31L922.09,1249.6,1514.73,115.31Q1573.71,0,1672.92,0,1748,0,1793.61,46.93Z"/><path class="cls-1" d="M2293.68,1861q-44.26-42.9-44.25-120.69V177q0-77.73,44.25-120.65t122-42.92h968q77.73,0,120.65,34.89t42.92,99.2q0,67-42.92,103.23t-120.65,36.21h-796.4V807.15h742.76q77.73,0,120.65,34.89t42.92,101.86q0,64.38-42.92,99.25T3330.08,1078H2587.32v552.37h796.4q77.73,0,120.65,36.21t42.92,103.26q0,64.32-42.92,99.21t-120.65,34.85h-968Q2337.9,1903.9,2293.68,1861Z"/><path class="cls-1" d="M5628.14,46.93q45.57,46.94,45.57,124.7V1759.09q0,75.11-42.91,118T5518.21,1920q-69.77,0-110-42.92t-40.23-118V654.31l-455.85,863.44q-32.16,59-69.74,87.16t-88.49,28.15q-51,0-88.49-26.82t-69.7-88.49l-458.54-850V1759.09q0,72.44-41.59,116.67T3984.36,1920q-69.77,0-110-42.92t-40.19-118V171.63q0-77.73,44.24-124.7T3997.77,0q104.57,0,163.57,115.31L4756.63,1249.6,5349.27,115.31Q5408.25,0,5507.46,0,5582.57,0,5628.14,46.93Z"/><path class="cls-1" d="M6128.22,1861q-44.27-42.9-44.25-120.69V177q0-77.73,44.25-120.65t122-42.92h968q77.73,0,120.65,34.89t42.92,99.2q0,67-42.92,103.23t-120.65,36.21h-796.4V807.15h742.76q77.73,0,120.65,34.89t42.92,101.86q0,64.38-42.92,99.25T7164.62,1078H6421.86v552.37h796.4q77.73,0,120.65,36.21t42.92,103.26q0,64.32-42.92,99.21t-120.65,34.85h-968Q6172.44,1903.9,6128.22,1861Z"/><path class="cls-1" d="M9157,1759.09q0,64.37-49.62,112.65T8993.43,1920q-67.05,0-118-59l-544.38-675.74-547,675.74q-48.29,56.37-115.3,56.33-64.38,0-114-46.93t-49.59-111.29q0-53.6,40.23-101.9L8130,943.9,7569.55,260.12q-40.23-42.9-40.23-101.9,0-64.32,48.26-111.29T7690.2,0q67.05,0,118,59l522.9,646.23L8854,59Q8902.24,0,8969.3,0q64.32,0,114,46.93t49.62,111.29q0,59-40.23,101.9L8532.2,943.9l581.92,713.29Q9157,1708.16,9157,1759.09Z"/></svg>